<?xml version="1.0" encoding="utf-8"?>
<!-- Generator: Adobe Illustrator 21.0.0, SVG Export Plug-In . SVG Version: 6.00 Build 0)  -->
<svg version="1.1" id="Layer_1" xmlns="http://www.w3.org/2000/svg" xmlns:xlink="http://www.w3.org/1999/xlink" x="0px" y="0px"
	 viewBox="0 0 26.4 26.3" style="enable-background:new 0 0 26.4 26.3;" xml:space="preserve">
<g>
	<path class="close-svg" d="M8.5,9.9c0.2,0.2,0.5,0.3,0.7,0.3c0.3,0,0.5-0.1,0.7-0.3c0.4-0.4,0.4-1,0-1.4l-8-8c-0.4-0.4-1-0.4-1.4,0
		c-0.4,0.4-0.4,1,0,1.4L8.5,9.9z"/>
	<path d="M14.7,13.2L26,1.9c0.4-0.4,0.4-1,0-1.4c-0.4-0.4-1-0.5-1.4-0.1l-12,11.9l-0.3,0.3l-11.9,12c-0.4,0.4-0.3,1,0.1,1.4
		c0.2,0.2,0.5,0.3,0.7,0.3c0.3,0,0.5-0.1,0.7-0.3l11.3-11.3l11.3,11.3c0.2,0.2,0.5,0.3,0.7,0.3c0.3,0,0.5-0.1,0.7-0.3
		c0.4-0.4,0.4-1,0-1.4L14.7,13.2z"/>
</g>
</svg>
